<svg width="100" height="100" viewBox="0 0 100 100" fill="none" xmlns="http://www.w3.org/2000/svg">
<path d="M71.4844 77.3438C70.4062 77.3438 69.5312 78.2188 69.5312 79.2969C69.5312 80.375 70.4062 81.25 71.4844 81.25C72.5625 81.25 73.4375 80.375 73.4375 79.2969C73.4375 78.2188 72.5625 77.3438 71.4844 77.3438Z" fill="black"/>
<path d="M76.2934 71.0279L67.0102 67.9342L63.6775 61.2688C66.6799 58.2129 68.7645 54.1695 69.4674 49.9521L69.883 47.4609H73.4375C76.6684 47.4609 79.2969 44.8324 79.2969 41.6016V29.2969C79.2969 13.1426 66.1543 0 50 0C33.8043 0 20.7031 13.1049 20.7031 29.2969V41.6016C20.7031 44.1477 22.3361 46.3187 24.6094 47.125V49.4141C24.6094 52.6449 27.2379 55.2734 30.4688 55.2734H32.184C33.0307 57.1127 34.1266 58.8162 35.4602 60.3465C35.7367 60.6645 36.0252 60.9727 36.3207 61.2725L32.9898 67.9342L23.7064 71.0281C12.9125 74.6273 5.07812 85.9904 5.07812 98.0469C5.07812 99.1256 5.95254 100 7.03125 100H92.9688C94.0473 100 94.9219 99.1256 94.9219 98.0469C94.9219 85.9904 87.0877 74.6273 76.2934 71.0279ZM75.3906 41.6016C75.3906 42.6785 74.5145 43.5547 73.4375 43.5547H70.4566C70.9531 39.709 71.284 35.6166 71.417 31.5859C71.4209 31.4723 71.424 31.3617 71.4275 31.25H75.3906V41.6016ZM26.5625 43.5547C25.4855 43.5547 24.6094 42.6785 24.6094 41.6016V31.25H28.5738C28.5803 31.4537 28.5871 31.6584 28.5947 31.8645C28.5949 31.8715 28.5953 31.8783 28.5955 31.8854C28.5955 31.8859 28.5955 31.8865 28.5955 31.8871C28.7322 35.8074 29.0588 39.7936 29.5439 43.5545H26.5625V43.5547ZM30.4688 51.3672C29.3918 51.3672 28.5156 50.491 28.5156 49.4141V47.4609H30.1168L30.5324 49.9529C30.6117 50.4266 30.7092 50.8984 30.8219 51.3672H30.4688ZM28.5189 27.3438H24.6836C25.6729 14.2537 36.5971 3.90625 50 3.90625C63.3434 3.90625 74.3156 14.2523 75.3162 27.3438H71.4813C71.3406 16.5572 62.5568 7.8125 51.7482 7.8125H48.2521C37.4437 7.8125 28.6594 16.5572 28.5189 27.3438ZM48.252 11.7188H51.7481C60.4998 11.7188 67.5832 18.8771 67.5781 27.6191C67.5781 28.2338 67.5732 28.7689 67.5629 29.2559C67.5629 29.2621 67.5627 29.2686 67.5627 29.275L65.1197 28.926C58.483 27.9783 52.2166 24.8451 47.4748 20.1033C47.1084 19.7371 46.6117 19.5312 46.0938 19.5312C40.8484 19.5312 35.8273 21.9211 32.5082 25.9586C33.3262 18.0057 40.0494 11.7188 48.252 11.7188ZM34.8711 51.3672C33.8934 48.1146 32.7746 38.5443 32.5273 32.4115L35.1561 28.9064C37.5703 25.6885 41.3264 23.6891 45.3219 23.4596C50.5791 28.4627 57.3803 31.7666 64.5674 32.7928L67.4428 33.2037C67.2506 37.2828 66.8578 41.3762 66.2951 45.1408C66.2949 45.142 66.2947 45.1434 66.2945 45.1447C66.1156 46.3551 65.9746 47.134 65.6145 49.3096C64.5801 55.5137 59.9508 61.124 53.8396 62.652C51.3246 63.2799 48.675 63.2797 46.1613 62.652C42.3455 61.6981 38.8467 59.0578 36.5887 55.2734H40.5703C41.3766 57.5467 43.5475 59.1797 46.0938 59.1797H50C53.2373 59.1797 55.8594 56.5578 55.8594 53.3203C55.8594 50.0895 53.2309 47.4609 50 47.4609H46.0938C43.4908 47.4609 41.352 49.1422 40.567 51.3672H34.8711ZM45.9295 66.6047C47.2691 66.8869 48.635 67.0312 50 67.0312C51.0686 67.0312 52.1373 66.9418 53.1939 66.7684L49.7428 70.4182L45.9295 66.6047ZM47.0576 73.2576L40.8627 79.8088C39.1572 76.5443 37.6918 73.1469 36.4898 69.6688L38.8162 65.016L47.0576 73.2576ZM60.8527 64.3543L63.5098 69.6686C62.3059 73.1525 60.84 76.5512 59.1363 79.8117L52.5059 73.1812L60.8527 64.3543ZM44.1406 53.3203C44.1406 52.242 45.0152 51.3672 46.0938 51.3672H50C51.077 51.3672 51.9531 52.2434 51.9531 53.3203C51.9531 54.3988 51.0783 55.2734 50 55.2734H46.0938C45.0168 55.2734 44.1406 54.3973 44.1406 53.3203ZM9.0625 96.0938C9.83652 86.4182 16.2758 77.6236 24.9418 74.7338L33.1633 71.9939C34.6695 76.159 36.5355 80.2072 38.7225 84.0525C38.7262 84.0592 38.7297 84.0658 38.7334 84.0723C38.7334 84.0725 38.7336 84.0725 38.7336 84.0727C40.3314 86.883 42.1299 89.6293 44.0797 92.2365L46.4824 96.0938H9.0625ZM50 94.3527L47.3512 90.1002C47.3215 90.0525 47.2898 90.0062 47.2562 89.9613C45.6746 87.8516 44.1992 85.6451 42.8555 83.3867L49.8209 76.0207L57.1604 83.3602C55.8076 85.635 54.3271 87.8506 52.7441 89.9609C52.6484 90.0885 52.7842 89.8875 50 94.3527ZM53.5176 96.0938L55.9201 92.2367C57.8785 89.6195 59.6898 86.8512 61.3037 84.0078C61.3135 83.9906 61.3227 83.973 61.3324 83.9559C61.3336 83.9537 61.3348 83.9518 61.3359 83.9496C63.4951 80.141 65.3416 76.1279 66.8367 71.9939L75.058 74.7338C83.7242 77.6236 90.1635 86.4182 90.9375 96.0938H53.5176Z" fill="black"/>
<path d="M85.0676 88.1896C83.7623 85.5769 81.8504 83.2558 79.5385 81.4773C78.6834 80.8193 77.4572 80.9792 76.7996 81.8343C76.1418 82.6894 76.3018 83.9156 77.1566 84.5734C79.0031 85.9939 80.5301 87.848 81.5729 89.9353C82.0559 90.9019 83.2297 91.2909 84.193 90.8097C85.1578 90.3277 85.5494 89.1546 85.0676 88.1896Z" fill="black"/>
</svg>
