<svg width="100" height="100" viewBox="0 0 100 100" fill="none" xmlns="http://www.w3.org/2000/svg">
<path d="M96.1752 40.0641L93.9957 37.7564L86.3462 17.1367C85.0427 13.6538 81.7094 11.3461 77.9915 11.3248H23.3547C19.6368 11.3248 16.3034 13.6538 15 17.1367L7.45727 37.5L4.31624 40.406C1.5812 42.735 0 46.1538 0 49.7436V79.7863C0.0213675 84.7008 4.01709 88.6752 8.93162 88.6752H14.5726C19.4872 88.6752 23.4829 84.7008 23.5043 79.7863V75.4273H76.4957V79.7863C76.5171 84.7008 80.5128 88.6752 85.4273 88.6752H91.0684C95.9829 88.6752 99.9786 84.7008 100 79.7863V48.953C99.9786 45.5983 98.6111 42.3931 96.1752 40.0641ZM19.0171 18.5897C19.7009 16.7735 21.4316 15.5983 23.3547 15.5983H78.0128C79.9359 15.5983 81.6667 16.7949 82.3504 18.5897L89.0171 36.5384H84.0385C82.8632 28.5256 75.406 22.9914 67.3932 24.188C61.0043 25.1282 55.9829 30.1496 55.0427 36.5384H12.3504L19.0171 18.5897ZM79.6795 36.5384H59.359C60.5342 30.9188 66.047 27.329 71.6667 28.5043C75.6838 29.359 78.8248 32.5 79.6795 36.5384ZM19.2308 79.7863C19.2094 82.3504 17.1368 84.4017 14.5726 84.4017H8.93162C6.36752 84.4017 4.29487 82.3504 4.2735 79.7863V74.188C5.55556 75.0214 7.24359 75.4273 8.93162 75.4273H19.2308V79.7863ZM95.7265 79.7863C95.7051 82.3504 93.6325 84.4017 91.0684 84.4017H85.4273C82.8632 84.4017 80.7906 82.329 80.7692 79.7863V75.4273H91.0684C92.7564 75.4273 94.4444 75.0214 95.7265 74.188V79.7863ZM91.0684 71.1538H8.93162C6.38889 71.1752 4.29487 69.1453 4.2735 66.5812V49.7436C4.2735 47.3931 5.32051 45.1496 7.11538 43.6325C7.13675 43.6111 7.17949 43.5684 7.20085 43.547L10.1068 40.8119H91.0256L93.0769 43.0128C93.0983 43.0555 93.1624 43.0769 93.1838 43.1196C94.7863 44.6367 95.7051 46.7521 95.7051 48.953V66.5812H95.7265C95.7051 69.1239 93.6111 71.1752 91.0684 71.1538Z" fill="black"/>
<path d="M28.2051 49.3589H12.1795C11.0043 49.3589 10.0427 50.3205 10.0427 51.4957V62.6068C10.0427 63.782 11.0043 64.7436 12.1795 64.7436H28.2051C29.3803 64.7436 30.3419 63.782 30.3419 62.6068V51.4957C30.3419 50.3205 29.3803 49.3589 28.2051 49.3589ZM26.0684 60.4701H14.3162V53.6325H26.0684V60.4701Z" fill="black"/>
<path d="M87.8205 49.3589H71.7949C70.6197 49.3589 69.6581 50.3205 69.6581 51.4957V62.6068C69.6581 63.782 70.6197 64.7436 71.7949 64.7436H87.8205C88.9957 64.7436 89.9573 63.782 89.9573 62.6068V51.4957C89.9573 50.3205 88.9957 49.3589 87.8205 49.3589ZM85.6838 60.4701H73.9316V53.6325H85.6838V60.4701Z" fill="black"/>
<path d="M60.3205 58.3334H39.6795C38.5043 58.3334 37.5427 59.2949 37.5427 60.4701C37.5427 61.6454 38.5043 62.6069 39.6795 62.6069H60.3205C61.4957 62.6069 62.4573 61.6454 62.4573 60.4701C62.4573 59.2949 61.4957 58.3334 60.3205 58.3334Z" fill="black"/>
<path d="M60.3205 51.7094H39.6795C38.5043 51.7094 37.5427 52.6709 37.5427 53.8462C37.5427 55.0214 38.5043 55.9829 39.6795 55.9829H60.3205C61.4957 55.9829 62.4573 55.0214 62.4573 53.8462C62.4573 52.6709 61.4957 51.7094 60.3205 51.7094Z" fill="black"/>
</svg>
