<svg width="100" height="100" viewBox="0 0 100 100" fill="none" xmlns="http://www.w3.org/2000/svg">
<path d="M15.6297 53.1124H43.7547C44.6188 53.1124 45.3172 52.414 45.3172 51.5499V45.2999C45.3172 44.4359 44.6188 43.7374 43.7547 43.7374H15.6297C14.7656 43.7374 14.0672 44.4359 14.0672 45.2999V51.5499C14.0672 52.414 14.7656 53.1124 15.6297 53.1124ZM17.1922 46.8624H42.1922V49.9874H17.1922V46.8624Z" fill="black"/>
<path d="M40.6297 56.2374C38.0453 56.2374 35.9422 58.3406 35.9422 60.9249C35.9422 63.5093 38.0453 65.6124 40.6297 65.6124C43.2141 65.6124 45.3172 63.5093 45.3172 60.9249C45.3172 58.3406 43.2141 56.2374 40.6297 56.2374ZM40.6297 62.4874C39.7672 62.4874 39.0672 61.7874 39.0672 60.9249C39.0672 60.0624 39.7672 59.3624 40.6297 59.3624C41.4922 59.3624 42.1922 60.0624 42.1922 60.9249C42.1922 61.7874 41.4922 62.4874 40.6297 62.4874Z" fill="black"/>
<path d="M29.6922 56.2374C27.1078 56.2374 25.0047 58.3406 25.0047 60.9249C25.0047 63.5093 27.1078 65.6124 29.6922 65.6124C32.2766 65.6124 34.3797 63.5093 34.3797 60.9249C34.3797 58.3406 32.2766 56.2374 29.6922 56.2374ZM29.6922 62.4874C28.8297 62.4874 28.1297 61.7874 28.1297 60.9249C28.1297 60.0624 28.8297 59.3624 29.6922 59.3624C30.5547 59.3624 31.2547 60.0624 31.2547 60.9249C31.2547 61.7874 30.5547 62.4874 29.6922 62.4874Z" fill="black"/>
<path d="M18.7547 65.6124C21.3391 65.6124 23.4422 63.5093 23.4422 60.9249C23.4422 58.3406 21.3391 56.2374 18.7547 56.2374C16.1703 56.2374 14.0672 58.3406 14.0672 60.9249C14.0672 63.5093 16.1703 65.6124 18.7547 65.6124ZM18.7547 59.3624C19.6172 59.3624 20.3172 60.0624 20.3172 60.9249C20.3172 61.7874 19.6172 62.4874 18.7547 62.4874C17.8922 62.4874 17.1922 61.7874 17.1922 60.9249C17.1922 60.0624 17.8922 59.3624 18.7547 59.3624Z" fill="black"/>
<path d="M40.6297 67.1749C38.0453 67.1749 35.9422 69.2781 35.9422 71.8624C35.9422 74.4468 38.0453 76.5499 40.6297 76.5499C43.2141 76.5499 45.3172 74.4468 45.3172 71.8624C45.3172 69.2781 43.2141 67.1749 40.6297 67.1749ZM40.6297 73.4249C39.7672 73.4249 39.0672 72.7249 39.0672 71.8624C39.0672 70.9999 39.7672 70.2999 40.6297 70.2999C41.4922 70.2999 42.1922 70.9999 42.1922 71.8624C42.1922 72.7249 41.4922 73.4249 40.6297 73.4249Z" fill="black"/>
<path d="M29.6922 67.1749C27.1078 67.1749 25.0047 69.2781 25.0047 71.8624C25.0047 74.4468 27.1078 76.5499 29.6922 76.5499C32.2766 76.5499 34.3797 74.4468 34.3797 71.8624C34.3797 69.2781 32.2766 67.1749 29.6922 67.1749ZM29.6922 73.4249C28.8297 73.4249 28.1297 72.7249 28.1297 71.8624C28.1297 70.9999 28.8297 70.2999 29.6922 70.2999C30.5547 70.2999 31.2547 70.9999 31.2547 71.8624C31.2547 72.7249 30.5547 73.4249 29.6922 73.4249Z" fill="black"/>
<path d="M18.7547 76.5499C21.3391 76.5499 23.4422 74.4468 23.4422 71.8624C23.4422 69.2781 21.3391 67.1749 18.7547 67.1749C16.1703 67.1749 14.0672 69.2781 14.0672 71.8624C14.0672 74.4468 16.1703 76.5499 18.7547 76.5499ZM18.7547 70.2999C19.6172 70.2999 20.3172 70.9999 20.3172 71.8624C20.3172 72.7249 19.6172 73.4249 18.7547 73.4249C17.8922 73.4249 17.1922 72.7249 17.1922 71.8624C17.1922 70.9999 17.8922 70.2999 18.7547 70.2999Z" fill="black"/>
<path d="M40.6297 78.1124C38.0453 78.1124 35.9422 80.2156 35.9422 82.7999C35.9422 85.3843 38.0453 87.4874 40.6297 87.4874C43.2141 87.4874 45.3172 85.3843 45.3172 82.7999C45.3172 80.2156 43.2141 78.1124 40.6297 78.1124ZM40.6297 84.3624C39.7672 84.3624 39.0672 83.6624 39.0672 82.7999C39.0672 81.9374 39.7672 81.2374 40.6297 81.2374C41.4922 81.2374 42.1922 81.9374 42.1922 82.7999C42.1922 83.6624 41.4922 84.3624 40.6297 84.3624Z" fill="black"/>
<path d="M29.6922 78.1124C27.1078 78.1124 25.0047 80.2156 25.0047 82.7999C25.0047 85.3843 27.1078 87.4874 29.6922 87.4874C32.2766 87.4874 34.3797 85.3843 34.3797 82.7999C34.3797 80.2156 32.2766 78.1124 29.6922 78.1124ZM29.6922 84.3624C28.8297 84.3624 28.1297 83.6624 28.1297 82.7999C28.1297 81.9374 28.8297 81.2374 29.6922 81.2374C30.5547 81.2374 31.2547 81.9374 31.2547 82.7999C31.2547 83.6624 30.5547 84.3624 29.6922 84.3624Z" fill="black"/>
<path d="M18.7547 87.4874C21.3391 87.4874 23.4422 85.3843 23.4422 82.7999C23.4422 80.2156 21.3391 78.1124 18.7547 78.1124C16.1703 78.1124 14.0672 80.2156 14.0672 82.7999C14.0672 85.3843 16.1703 87.4874 18.7547 87.4874ZM18.7547 81.2374C19.6172 81.2374 20.3172 81.9374 20.3172 82.7999C20.3172 83.6624 19.6172 84.3624 18.7547 84.3624C17.8922 84.3624 17.1922 83.6624 17.1922 82.7999C17.1922 81.9374 17.8922 81.2374 18.7547 81.2374Z" fill="black"/>
<path d="M65.6063 23.4562H65.4891C64.9985 19.614 62.7188 16.1875 59.3563 14.2296V13.5718C59.3563 13.4921 59.3235 13.4218 59.311 13.3453C59.2938 13.2312 59.2844 13.1171 59.2438 13.0093C59.2063 12.9109 59.1438 12.8312 59.086 12.7421C59.0344 12.6609 58.9922 12.5781 58.925 12.5078C58.8391 12.4156 58.7344 12.3531 58.6297 12.2843C58.5719 12.2468 58.5297 12.1906 58.4656 12.1609C58.45 12.1531 58.4328 12.1484 58.4188 12.1406C58.4063 12.1359 58.3953 12.1312 58.3828 12.1265C55.0703 10.575 51.161 10.5734 47.8281 12.1218C47.8203 12.125 47.8125 12.1265 47.8047 12.1312C47.7875 12.139 47.7719 12.1437 47.7547 12.1515C47.6828 12.1843 47.636 12.2468 47.5719 12.289C47.4735 12.3546 47.3735 12.4125 47.2922 12.4968C47.225 12.5703 47.1828 12.6562 47.1297 12.7375C47.0735 12.825 47.011 12.9031 46.9719 13.0015C46.9313 13.1078 46.9234 13.2218 46.9047 13.3359C46.8922 13.414 46.8594 13.4843 46.8594 13.564V14.2234C43.4906 16.1812 41.2063 19.6093 40.7141 23.4546H40.6063C39.7422 23.4546 39.0438 24.1531 39.0438 25.0171V29.7046C39.0438 30.5687 39.7422 31.2671 40.6063 31.2671H65.6063C66.4703 31.2671 67.1688 30.5687 67.1688 29.7046V25.0171C67.1688 24.1546 66.4703 23.4562 65.6063 23.4562ZM46.8594 18.0312V18.7656C46.8594 19.6296 47.5578 20.3281 48.4219 20.3281C49.286 20.3281 49.9844 19.6296 49.9844 18.7656V14.6156C52.0016 13.9062 54.2235 13.9093 56.2313 14.6187V18.7656C56.2313 19.6296 56.9297 20.3281 57.7938 20.3281C58.6578 20.3281 59.3563 19.6296 59.3563 18.7656V18.0406C60.9203 19.4515 61.9719 21.3656 62.3297 23.4562H43.8735C44.2344 21.3609 45.2891 19.4421 46.8594 18.0312ZM64.0438 28.1437H42.1688V26.5812H64.0438V28.1437Z" fill="black"/>
<path d="M74.9969 43.7594H79.6844C80.5484 43.7594 81.2469 43.061 81.2469 42.1969C81.2469 41.3328 80.5484 40.6344 79.6844 40.6344H74.9969C74.1328 40.6344 73.4344 41.3328 73.4344 42.1969C73.4344 43.061 74.1328 43.7594 74.9969 43.7594Z" fill="black"/>
<path d="M79.6844 48.4469H73.4328C72.5687 48.4469 71.8703 49.1453 71.8703 50.0094C71.8703 50.8735 72.5687 51.5719 73.4328 51.5719H79.6844C80.5484 51.5719 81.2469 50.8735 81.2469 50.0094C81.2469 49.1453 80.5484 48.4469 79.6844 48.4469Z" fill="black"/>
<path d="M79.6844 56.2594H74.9969C74.1328 56.2594 73.4344 56.9578 73.4344 57.8219C73.4344 58.686 74.1328 59.3844 74.9969 59.3844H79.6844C80.5484 59.3844 81.2469 58.686 81.2469 57.8219C81.2469 56.9578 80.5484 56.2594 79.6844 56.2594Z" fill="black"/>
<path d="M79.6843 64.0719H76.5609C75.6969 64.0719 74.9984 64.7703 74.9984 65.6344C74.9984 66.4985 75.6969 67.1969 76.5609 67.1969H79.6843C80.5484 67.1969 81.2468 66.4985 81.2468 65.6344C81.2468 64.7703 80.5484 64.0719 79.6843 64.0719Z" fill="black"/>
<path d="M79.6844 71.8844H74.9969C74.1328 71.8844 73.4344 72.5828 73.4344 73.4469C73.4344 74.311 74.1328 75.0094 74.9969 75.0094H79.6844C80.5484 75.0094 81.2469 74.311 81.2469 73.4469C81.2469 72.5828 80.5484 71.8844 79.6844 71.8844Z" fill="black"/>
<path d="M79.6844 79.6969H73.4328C72.5687 79.6969 71.8703 80.3953 71.8703 81.2594C71.8703 82.1235 72.5687 82.8219 73.4328 82.8219H79.6844C80.5484 82.8219 81.2469 82.1235 81.2469 81.2594C81.2469 80.3953 80.5484 79.6969 79.6844 79.6969Z" fill="black"/>
<path d="M92.1797 12.5031C92.1781 12.3046 92.1391 12.1078 92.0625 11.9218C91.9828 11.7296 91.8688 11.5562 91.7234 11.4125L80.7906 0.471826C80.6469 0.326514 80.4735 0.212451 80.2813 0.132764C80.0906 0.0530762 79.8875 0.0124512 79.6844 0.0124512H29.6922C28.8281 0.0124512 28.1297 0.710889 28.1297 1.57495V37.4875H12.5047C9.92033 37.4875 7.8172 39.5906 7.8172 42.175V48.425V89.0499V95.2999C7.8172 97.8843 9.92033 99.9874 12.5047 99.9874H46.8797C49.4641 99.9874 51.5672 97.8843 51.5672 95.2999V93.7312H90.6203C91.4844 93.7312 92.1828 93.0328 92.1828 92.1687V12.5218C92.1828 12.5218 92.1828 12.5218 92.1828 12.5203V12.5187C92.1828 12.5125 92.1797 12.5078 92.1797 12.5031ZM81.2469 5.34839L86.85 10.9562H81.2469V5.34839ZM10.9422 42.175C10.9422 41.3125 11.6422 40.6125 12.5047 40.6125H46.8797C47.7422 40.6125 48.4422 41.3125 48.4422 42.175V48.425V89.0499C48.4422 89.9125 47.7422 90.6124 46.8797 90.6124H12.5047C11.6422 90.6124 10.9422 89.9125 10.9422 89.0499V48.425V42.175ZM46.8797 96.8624H12.5047C11.6422 96.8624 10.9422 96.1625 10.9422 95.2999V93.4484C11.4328 93.6234 11.9531 93.7374 12.5047 93.7374H46.8797C47.4313 93.7374 47.9516 93.625 48.4422 93.4484V95.2999C48.4422 96.1625 47.7422 96.8624 46.8797 96.8624ZM51.5672 89.0499V82.8218H65.6172C66.4813 82.8218 67.1797 82.1234 67.1797 81.2593C67.1797 80.3953 66.4813 79.6968 65.6172 79.6968H51.5672V75.0093H65.6172C66.4813 75.0093 67.1797 74.3109 67.1797 73.4468C67.1797 72.5828 66.4813 71.8843 65.6172 71.8843H51.5672V67.1968H65.6172C66.4813 67.1968 67.1797 66.4984 67.1797 65.6343C67.1797 64.7703 66.4813 64.0718 65.6172 64.0718H51.5672V59.3843H65.6172C66.4813 59.3843 67.1797 58.6859 67.1797 57.8218C67.1797 56.9578 66.4813 56.2593 65.6172 56.2593H51.5672V51.5718H65.6172C66.4813 51.5718 67.1797 50.8734 67.1797 50.0093C67.1797 49.1453 66.4813 48.4468 65.6172 48.4468H51.5672V48.425V43.7593H65.6172C66.4813 43.7593 67.1797 43.0609 67.1797 42.1968C67.1797 41.3328 66.4813 40.6343 65.6172 40.6343H51.286C50.6438 38.8078 48.9203 37.4875 46.8797 37.4875H31.2547V3.13745H78.1219V12.5187C78.1219 13.3828 78.8203 14.0812 79.6844 14.0812H89.0578V90.6078H51.5672V89.0499Z" fill="black"/>
</svg>
