<svg width="100" height="100" viewBox="0 0 100 100" fill="none" xmlns="http://www.w3.org/2000/svg">
<g clip-path="url(#clip0)">
<path d="M84.8959 54.1982V44.4371L89.2439 47.3295C90.0625 47.874 91.0006 48.1463 91.9389 48.1463C92.8771 48.1463 93.8154 47.8738 94.634 47.3293C95.9934 46.425 96.8049 44.9105 96.8049 43.2779C96.8049 41.6453 95.9934 40.1309 94.634 39.2266L83.4244 31.7697C82.7709 31.3352 81.8883 31.5123 81.4533 32.166C81.0186 32.8197 81.1959 33.7021 81.8496 34.1371L93.0592 41.5939C93.6326 41.9754 93.9615 42.5893 93.9615 43.2779C93.9615 43.9666 93.6326 44.5805 93.0592 44.9619C92.3785 45.4144 91.4992 45.4144 90.8187 44.9619L84.2625 40.6006C84.2623 40.6004 84.2619 40.6002 84.2617 40.6L49.9621 17.784L49.7828 17.6646C49.7393 17.6357 49.6947 17.6092 49.6498 17.5832C49.6408 17.5779 49.632 17.5719 49.623 17.5668C49.5756 17.54 49.5271 17.5156 49.4785 17.4924C49.4717 17.4891 49.465 17.4852 49.458 17.4818C49.4064 17.4576 49.3541 17.4357 49.3014 17.4152C49.2971 17.4137 49.293 17.4115 49.2887 17.41C49.2623 17.3998 49.2354 17.3918 49.2086 17.3826C48.4863 17.1346 47.6793 17.2277 47.0225 17.6646L5.98613 44.9623C5.30547 45.4148 4.42598 45.4148 3.7457 44.9623C3.17227 44.5809 2.84336 43.967 2.84336 43.2783C2.84336 42.5896 3.17227 41.9758 3.7457 41.5943L48.4025 11.8881L74.4938 29.2443C75.1477 29.6791 76.0301 29.502 76.4648 28.848C76.8996 28.1943 76.7223 27.3119 76.0686 26.877L49.7828 9.39121C48.9443 8.8334 47.8607 8.8334 47.0225 9.39121L33.6188 18.3074V15.9979H34.0258C35.0439 15.9979 35.8723 15.1695 35.8723 14.1514V9.84648C35.8723 8.82832 35.0439 8 34.0258 8H19.0152C17.9971 8 17.1688 8.82832 17.1688 9.84648V14.1514C17.1688 15.1695 17.9971 15.9979 19.0152 15.9979H19.4221V27.751L2.1709 39.2266C0.811523 40.1309 0 41.6455 0 43.2781C0 44.9107 0.811523 46.4254 2.1709 47.3297C3.8082 48.4187 5.92383 48.4186 7.56094 47.3297L11.909 44.4373V69.5191C11.909 70.3043 12.5455 70.9408 13.3307 70.9408C14.1158 70.9408 14.7523 70.3043 14.7523 69.5191V42.5459L48.4025 20.1615L82.0525 42.5459V53.2791C81.9279 53.2477 81.8025 53.2199 81.6775 53.1904C81.6248 53.1779 81.5723 53.165 81.5193 53.1529C81.3787 53.1207 81.2377 53.0902 81.0967 53.0607C81.0182 53.0441 80.9393 53.0283 80.8605 53.0125C80.7301 52.9865 80.5994 52.9609 80.4684 52.9371C80.373 52.9197 80.2771 52.9041 80.1814 52.8879C80.0619 52.8678 79.9428 52.8467 79.823 52.8283C79.6199 52.7971 79.416 52.7687 79.2111 52.7428C79.1178 52.7309 79.024 52.7213 78.9303 52.7105C78.7975 52.6953 78.6646 52.6803 78.5312 52.6672C78.4348 52.6578 78.3383 52.6496 78.2416 52.6414C78.1078 52.6299 77.9738 52.6195 77.8393 52.6103C77.7465 52.6041 77.6535 52.5978 77.5605 52.5926C77.4139 52.5842 77.2668 52.5779 77.1195 52.5723C77.0393 52.5691 76.9592 52.5654 76.8789 52.5631C76.6643 52.557 76.4488 52.5535 76.2328 52.5531C76.2213 52.5531 76.2096 52.5525 76.198 52.5525C64.7143 52.5525 55.1039 60.7275 52.8809 71.5635C52.5633 73.1115 52.3965 74.7139 52.3965 76.3543C52.3965 76.5543 52.399 76.7543 52.4041 76.9541C52.4596 79.1879 52.8246 81.3463 53.4574 83.3881C53.458 83.39 53.4586 83.3922 53.4592 83.3943C53.4875 83.4855 53.5176 83.5762 53.5471 83.667C53.7604 84.3297 54.001 84.9834 54.2715 85.6246H47.2682V52.5256C47.2682 50.8746 45.925 49.5316 44.2742 49.5316H23.4277C21.7768 49.5316 20.4338 50.8748 20.4338 52.5256V85.6246H14.7523V78.4283C14.7523 77.6432 14.1158 77.0066 13.3307 77.0066C12.5455 77.0066 11.909 77.6432 11.909 78.4283V85.6246H6.05762C3.88242 85.6246 2.1125 87.3943 2.1125 89.5697C2.1125 91.7449 3.88223 93.5148 6.05762 93.5148H59.7217C64.0014 97.6256 69.8096 100.156 76.1982 100.156C89.3225 100.156 100 89.4787 100 76.3545C100 66.2982 93.7311 57.6787 84.8959 54.1982ZM30.7754 20.1988L22.2654 25.8596V15.9979H30.7754V20.1988ZM20.0121 10.8434H33.0289V13.1545H20.0121V10.8434ZM23.277 52.5256C23.277 52.4424 23.3445 52.375 23.4275 52.375H44.2742C44.3574 52.375 44.4248 52.4426 44.4248 52.5256V85.6246H23.277V52.5256ZM6.05762 90.6715C5.4502 90.6715 4.95586 90.1771 4.95586 89.5697C4.95586 88.9621 5.4502 88.468 6.05762 88.468H55.7057C56.1566 89.2293 56.65 89.9648 57.1828 90.6715H6.05762ZM76.1982 97.3129C67.0277 97.3129 59.215 91.3922 56.3795 83.1728C56.3541 83.0988 56.3289 83.025 56.3043 82.9506C56.274 82.8596 56.2443 82.7684 56.2152 82.6769C56.1676 82.5256 56.1211 82.3738 56.0768 82.2213C56.0691 82.1951 56.0609 82.1691 56.0535 82.143C55.6982 80.9021 55.457 79.6273 55.3344 78.3379C55.3324 78.3164 55.3307 78.2951 55.3287 78.2736C55.3123 78.0955 55.2986 77.9172 55.2867 77.7387C55.2836 77.6916 55.2805 77.6445 55.2777 77.5973C55.2684 77.4385 55.2611 77.2797 55.2553 77.1207C55.2533 77.0691 55.2508 77.0178 55.2494 76.966C55.2434 76.7623 55.2398 76.5584 55.2398 76.3543C55.2398 74.9098 55.3867 73.4988 55.6664 72.1357C57.624 62.5941 66.0863 55.3959 76.1982 55.3959C76.2021 55.3959 76.2063 55.3961 76.2102 55.3961C76.4641 55.3963 76.7172 55.4025 76.9699 55.4117C77.0291 55.4139 77.0883 55.4158 77.1473 55.4186C77.3918 55.4295 77.6357 55.4443 77.8791 55.4637C77.9387 55.4684 77.998 55.4744 78.0574 55.4795C78.2648 55.4977 78.4719 55.5191 78.6785 55.5435C78.7354 55.5502 78.7926 55.556 78.8494 55.5631C79.0752 55.5916 79.3 55.6252 79.5244 55.6609C79.6135 55.6752 79.7023 55.6898 79.791 55.7053C80.002 55.7418 80.2123 55.7807 80.4219 55.8236C80.5211 55.8439 80.6197 55.8666 80.7184 55.8883C80.8529 55.918 80.9871 55.949 81.1211 55.9814C81.2873 56.0217 81.4527 56.0637 81.6174 56.1078C81.74 56.1406 81.8623 56.1738 81.9844 56.2088C82.1211 56.2482 82.2574 56.2887 82.3932 56.3307C82.4504 56.3484 82.5074 56.3674 82.5646 56.3855C91.0178 59.0869 97.1564 67.0166 97.1564 76.3541C97.1566 87.9109 87.7547 97.3129 76.1982 97.3129Z" fill="black"/>
<path d="M90.259 61.3716C89.4873 60.6527 88.4811 60.2757 87.4277 60.3152C86.3736 60.3527 85.3973 60.7986 84.6789 61.5705L72.6598 74.4779L68.961 70.4535C67.4875 68.8507 64.985 68.7453 63.382 70.2183C61.7793 71.6916 61.6738 74.1943 63.1471 75.797L69.734 82.9636C70.4764 83.7712 71.5313 84.2365 72.6326 84.24H72.6408C73.7328 84.24 74.7861 83.7816 75.5303 82.9824L90.4576 66.9515C91.1764 66.1796 91.5516 65.1742 91.5141 64.1203C91.4764 63.0664 91.0307 62.09 90.259 61.3716ZM88.3768 65.0138L73.4494 81.0449C73.2412 81.2685 72.9465 81.3968 72.6408 81.3968V82.8185L72.6373 81.3968C72.3305 81.3959 72.0352 81.2656 71.8274 81.0396L65.2404 73.873C64.8281 73.4246 64.8576 72.7242 65.3061 72.3119C65.518 72.1171 65.786 72.021 66.0533 72.021C66.352 72.021 66.6498 72.1412 66.8674 72.3777L71.6061 77.5334C71.8742 77.8252 72.252 77.9918 72.6483 77.9929C72.6498 77.9929 72.6514 77.9929 72.6529 77.9929C73.0475 77.9929 73.4244 77.8289 73.6934 77.54L86.7598 63.5078C86.9608 63.2918 87.2338 63.1671 87.5289 63.1566C87.8221 63.1464 88.1051 63.2511 88.3213 63.4523C88.5373 63.6535 88.6621 63.9267 88.6725 64.2216C88.683 64.5164 88.5779 64.7978 88.3768 65.0138Z" fill="black"/>
<path d="M40.1011 61.2937C39.3187 61.2937 38.6847 61.9277 38.6847 62.7101V65.6375C38.6847 66.4199 39.3187 67.0539 40.1011 67.0539C40.8835 67.0539 41.5175 66.4199 41.5175 65.6375V62.7101C41.5175 61.9277 40.8835 61.2937 40.1011 61.2937Z" fill="black"/>
</g>
<defs>
<clipPath id="clip0">
<rect width="100" height="100" fill="white"/>
</clipPath>
</defs>
</svg>
