<svg width="100" height="100" viewBox="0 0 100 100" fill="none" xmlns="http://www.w3.org/2000/svg">
<path d="M72.9168 0.000366211H10.4171C10.0837 0.0294676 9.73999 0.0169677 9.40054 0.0482175C3.99198 0.707003 -0.0564358 5.32709 0.000595108 10.7753V74.9999C0.000595108 79.6022 3.73163 83.3333 8.33394 83.3333C12.9363 83.3333 16.6673 79.6024 16.6673 74.9999V72.9165H22.9173V86.4581C22.9229 91.6332 27.117 95.8273 32.2922 95.833C37.4674 95.8273 41.6615 91.6332 41.6671 86.4581V83.3331H47.9171V79.1665H39.5838C38.4332 79.1665 37.5004 80.0993 37.5004 81.2499V86.4583C37.5004 89.3348 35.1686 91.6666 32.292 91.6666C29.4155 91.6666 27.0836 89.3348 27.0836 86.4583V70.8333C27.0836 69.6828 26.1508 68.75 25.0003 68.75H14.5839C13.4333 68.75 12.5005 69.6828 12.5005 70.8333V74.9999C12.5005 77.3011 10.6351 79.1665 8.33394 79.1665C6.03279 79.1665 4.16737 77.3011 4.16737 74.9999V10.7753C4.0953 7.47044 6.51638 4.63862 9.79233 4.19624C10.0007 4.16714 10.2089 4.16714 10.4173 4.16714H10.5111C12.0335 4.18452 13.496 4.76245 14.6195 5.78998C15.9226 6.97552 16.6659 8.6552 16.6673 10.4171C16.6673 11.5677 17.6001 12.5005 18.7507 12.5005H81.2503C82.4009 12.5005 83.3337 11.5677 83.3337 10.4171C83.3265 4.66675 78.6669 0.00720211 72.9168 0.000366211ZM20.6255 8.33352C20.3153 6.82337 19.6751 5.40053 18.7505 4.16694H72.9168C75.5646 4.17026 77.9244 5.83842 78.8105 8.33352H20.6255Z" fill="black"/>
<path d="M81.2501 20.8335H39.5838C36.132 20.8335 33.3338 23.6317 33.3338 27.0835V39.5834C33.3338 43.0351 36.132 45.8334 39.5838 45.8334H81.2501C84.7019 45.8334 87.5001 43.0351 87.5001 39.5834V27.0835C87.5001 23.6317 84.7019 20.8335 81.2501 20.8335ZM83.3335 39.5834C83.3335 40.734 82.4007 41.6668 81.2501 41.6668H39.5838C38.4332 41.6668 37.5004 40.734 37.5004 39.5834V27.0835C37.5004 25.9329 38.4332 25.0001 39.5838 25.0001H81.2501C82.4007 25.0001 83.3335 25.9329 83.3335 27.0835V39.5834Z" fill="black"/>
<path d="M35.417 31.2502V27.0836H31.2504C30.0998 27.0836 29.167 28.0164 29.167 29.167V37.5004C29.167 38.6509 30.0998 39.5837 31.2504 39.5837H35.417V35.4172H33.3338V31.2506H35.417V31.2502Z" fill="black"/>
<path d="M89.5835 27.0835H85.4169V31.2501H87.5003V35.4166H85.4169V39.5832H89.5835C90.734 39.5832 91.6668 38.6504 91.6668 37.4998V29.1665C91.6666 28.0163 90.734 27.0835 89.5835 27.0835Z" fill="black"/>
<path d="M93.75 31.2502H85.4167V35.4168H93.75C94.9006 35.4168 95.8334 36.3496 95.8334 37.5002V47.9168C95.8334 49.0673 94.9006 50.0001 93.75 50.0001H68.7502C63 50.007 58.3405 54.6667 58.3336 60.4167V68.75H62.5002V60.4167C62.5002 56.9649 65.2984 54.1667 68.7502 54.1667H93.75C97.2018 54.1667 100 51.3685 100 47.9168V37.5002C100 34.0483 97.2018 31.2502 93.75 31.2502Z" fill="black"/>
<path d="M66.6668 66.6666H54.1669C53.0163 66.6666 52.0835 67.5994 52.0835 68.75V91.6665C52.0835 96.2688 55.8143 99.9999 60.4168 99.9999C65.0194 99.9999 68.7502 96.269 68.7502 91.6665V68.75C68.7502 67.5994 67.8174 66.6666 66.6668 66.6666ZM64.5836 91.6665C64.5836 93.9677 62.7182 95.8331 60.417 95.8331C58.1159 95.8331 56.2505 93.9677 56.2505 91.6665V70.8332H64.5838V91.6665H64.5836Z" fill="black"/>
<path d="M75.0001 10.4169H70.8336V16.6668H75.0001V10.4169Z" fill="black"/>
<path d="M41.6669 50.0001H37.5004V64.5834H41.6669V50.0001Z" fill="black"/>
<path d="M41.6669 68.75H37.5004V72.9166H41.6669V68.75Z" fill="black"/>
<path d="M18.7505 25.0002H14.5839V52.0835H18.7505V25.0002Z" fill="black"/>
<path d="M18.7505 56.2501H14.5839V60.4167H18.7505V56.2501Z" fill="black"/>
<path d="M79.1667 33.3334H75.0001V37.5H79.1667V33.3334Z" fill="black"/>
<path d="M70.8334 33.3334H66.6668V37.5H70.8334V33.3334Z" fill="black"/>
<path d="M66.6668 87.4999H54.1669V91.6665H66.6668V87.4999Z" fill="black"/>
</svg>
